<?xml version="1.0" encoding="UTF-8"?>
<svg id="Layer_2" data-name="Layer 2" xmlns="http://www.w3.org/2000/svg" viewBox="0 0 468 134.02">
  <defs>
    <style>
      .cls-1 {
        fill: #eb2329;
      }
    </style>
  </defs>
  <g id="Layer_1-2" data-name="Layer 1">
    <g>
      <path class="cls-1" d="M58.45,0c16.26,8.72,32.11,18.25,48.09,27.5,4.68,2.71,4.69,9.47,0,12.18-14.8,8.58-29.48,17.52-44.52,25.53-1.96,1.04-4.29,1.11-6.3.16-8.97-4.24-17.58-9.66-26.23-14.82-4.6-2.75-4.56-9.43.07-12.13.05-.03.09-.05.14-.08,2.18-1.26,4.87-1.28,7.04-.02,6.3,3.65,12.5,7.92,19.12,10.8,1.91.83,4.08.8,5.94-.12,5.65-2.8,11.08-6.1,16.52-9.37,4.54-2.73,4.55-9.3.03-12.05-5.56-3.38-11.13-6.81-16.98-9.44-1.96-.88-4.22-.82-6.12.18-12.71,6.64-24.89,14.4-37.39,21.44-2.21,1.25-3.6,3.58-3.61,6.12-.06,17.15-.03,34.3-.03,51.45,0,5.42-5.87,8.8-10.56,6.09-.05-.03-.1-.06-.16-.09C1.35,102.08,0,99.75,0,97.24c0-19.86-.02-39.71.01-59.57,0-2.52,1.36-4.85,3.55-6.1C21.87,21.08,40.02,10.26,58.45,0h0Z"/>
      <path class="cls-1" d="M117.2,39.96v12.3c0,2.53-1.36,4.87-3.57,6.12-17.29,9.8-34.28,20.4-51.81,29.69-1.94,1.03-4.25,1.1-6.24.18-3.93-1.83-7.73-4.06-11.5-6.33-4.69-2.83-10.67.54-10.68,6.02,0,4.04,0,8.09,0,12.13,0,2.52,1.35,4.85,3.53,6.1,6.02,3.46,12.04,6.92,18.04,10.45,2.17,1.27,4.85,1.29,7.04.05,14.91-8.49,29.76-17.13,44.63-25.71,4.69-2.71,10.56.68,10.56,6.1v.18c0,2.52-1.34,4.84-3.52,6.1-17.15,9.89-34.33,19.76-51.43,29.73-2.16,1.26-4.83,1.28-7.01.05-10.91-6.18-21.77-12.46-32.59-18.8-2.16-1.27-3.49-3.59-3.48-6.09.03-15,0-30.01.02-45.01,0-5.42,5.88-8.8,10.57-6.09,8.47,4.91,16.94,9.83,25.45,14.67,2.18,1.24,4.86,1.23,7.03-.04,18.29-10.66,36.67-21.17,54.97-31.8h0Z"/>
    </g>
    <g>
      <path d="M143.18,13.78h20.99c3.11,0,5.94.34,8.5,1.03,2.55.69,4.74,1.72,6.56,3.1,1.82,1.38,3.24,3.11,4.27,5.2,1.02,2.09,1.53,4.51,1.53,7.26v.13c0,2.8-.51,5.28-1.53,7.43-1.02,2.16-2.47,3.97-4.33,5.43-1.87,1.47-4.1,2.57-6.7,3.3-2.6.73-5.48,1.1-8.63,1.1h-5.07v12.66h-15.59V13.78ZM162.97,36.64c2,0,3.61-.43,4.83-1.3,1.22-.87,1.83-2.14,1.83-3.83v-.13c0-1.69-.58-2.97-1.73-3.83-1.16-.87-2.78-1.3-4.87-1.3h-4.27v10.4h4.2Z"/>
      <path d="M212.69,61.43c-3.6,0-6.94-.62-10.03-1.87s-5.78-2.95-8.06-5.13c-2.29-2.18-4.08-4.74-5.37-7.7-1.29-2.95-1.93-6.12-1.93-9.5v-.13c0-3.38.66-6.54,1.97-9.5,1.31-2.95,3.11-5.53,5.4-7.73,2.29-2.2,4.99-3.93,8.1-5.2,3.11-1.27,6.46-1.9,10.06-1.9s6.94.62,10.03,1.87c3.09,1.24,5.77,2.96,8.06,5.13,2.29,2.18,4.08,4.74,5.37,7.7,1.29,2.96,1.93,6.12,1.93,9.5v.13c0,3.38-.66,6.54-1.97,9.5-1.31,2.96-3.11,5.53-5.4,7.73-2.29,2.2-4.99,3.93-8.1,5.2-3.11,1.27-6.46,1.9-10.06,1.9ZM212.82,47.64c1.47,0,2.8-.29,4-.87,1.2-.58,2.22-1.34,3.07-2.3.84-.95,1.49-2.05,1.93-3.3.44-1.24.67-2.55.67-3.93v-.13c0-1.38-.23-2.7-.7-3.96-.47-1.27-1.12-2.39-1.97-3.37-.84-.98-1.87-1.75-3.07-2.33-1.2-.58-2.56-.87-4.07-.87s-2.8.29-4,.87c-1.2.58-2.22,1.34-3.07,2.3-.84.96-1.49,2.06-1.93,3.3-.44,1.25-.67,2.56-.67,3.93v.13c0,1.38.23,2.7.7,3.97.47,1.27,1.12,2.39,1.97,3.37.84.98,1.87,1.76,3.07,2.33,1.2.58,2.55.87,4.07.87Z"/>
      <path d="M262.2,61.3c-4.75,0-9.19-.66-13.3-1.97-4.11-1.31-7.65-3.28-10.63-5.9l8.33-9.93c2.53,1.96,5.2,3.36,8,4.2,2.8.84,5.58,1.27,8.33,1.27,1.42,0,2.44-.18,3.07-.53.62-.36.93-.84.93-1.47v-.13c0-.67-.46-1.22-1.37-1.67-.91-.44-2.61-.91-5.1-1.4-2.62-.53-5.12-1.16-7.5-1.87-2.38-.71-4.47-1.62-6.26-2.73-1.8-1.11-3.23-2.5-4.3-4.17-1.07-1.67-1.6-3.74-1.6-6.23v-.13c0-2.22.43-4.29,1.3-6.2.87-1.91,2.13-3.58,3.8-5,1.67-1.42,3.73-2.53,6.2-3.33s5.3-1.2,8.5-1.2c4.53,0,8.5.53,11.9,1.6,3.4,1.07,6.45,2.67,9.16,4.8l-7.6,10.53c-2.22-1.6-4.57-2.77-7.03-3.5-2.47-.73-4.79-1.1-6.96-1.1-1.16,0-2.01.18-2.57.53s-.83.82-.83,1.4v.13c0,.31.09.6.27.87.18.27.5.52.97.77.47.25,1.1.48,1.9.7.8.22,1.82.44,3.07.67,2.98.53,5.69,1.18,8.13,1.93,2.44.76,4.54,1.72,6.3,2.9,1.75,1.18,3.11,2.59,4.07,4.23.96,1.64,1.43,3.64,1.43,6v.13c0,2.44-.49,4.64-1.47,6.6-.98,1.96-2.36,3.61-4.13,4.97-1.78,1.36-3.94,2.4-6.5,3.13-2.56.73-5.39,1.1-8.5,1.1Z"/>
      <path d="M296.66,26.98h-13.73v-13.2h43.05v13.2h-13.73v33.46h-15.59V26.98Z"/>
      <path d="M166.3,121.24c-3.24,0-6.32-.58-9.23-1.73-2.91-1.15-5.48-2.8-7.7-4.93-2.22-2.13-3.99-4.69-5.3-7.66-1.31-2.98-1.97-6.26-1.97-9.86v-.13c0-3.46.63-6.69,1.9-9.66s3.02-5.55,5.26-7.73c2.24-2.18,4.88-3.88,7.9-5.1,3.02-1.22,6.26-1.83,9.73-1.83,2.58,0,4.94.3,7.1.9,2.15.6,4.11,1.43,5.87,2.5,1.75,1.07,3.31,2.34,4.67,3.83,1.35,1.49,2.52,3.12,3.5,4.9l-12.86,7.53c-.89-1.69-1.99-3.05-3.3-4.1-1.31-1.04-3.03-1.57-5.17-1.57-1.33,0-2.53.27-3.6.8s-1.98,1.27-2.73,2.2c-.76.93-1.34,2.02-1.77,3.27-.42,1.25-.63,2.56-.63,3.93v.13c0,1.51.21,2.9.63,4.17.42,1.27,1.02,2.36,1.8,3.27.78.91,1.7,1.62,2.77,2.13,1.07.51,2.24.77,3.53.77,2.22,0,4-.54,5.33-1.63,1.33-1.09,2.49-2.5,3.47-4.23l12.86,7.26c-.98,1.73-2.13,3.37-3.47,4.9-1.33,1.53-2.9,2.87-4.7,4-1.8,1.13-3.84,2.03-6.13,2.7s-4.88,1-7.76,1Z"/>
      <path d="M191.36,73.59h22.79c4.18,0,7.61.48,10.3,1.43,2.69.96,4.85,2.26,6.5,3.9,1.42,1.42,2.49,3.02,3.2,4.8.71,1.78,1.07,3.87,1.07,6.26v.13c0,3.42-.82,6.31-2.47,8.66-1.64,2.36-3.89,4.22-6.73,5.6l10.86,15.86h-17.79l-8.8-13.33h-3.33v13.33h-15.59v-46.65ZM213.69,95.78c1.87,0,3.33-.4,4.4-1.2s1.6-1.91,1.6-3.33v-.13c0-1.51-.53-2.63-1.6-3.37-1.07-.73-2.51-1.1-4.33-1.1h-6.8v9.13h6.73Z"/>
      <path d="M253.61,73.25h15.46l19.66,46.99h-16.93l-2.47-6.26h-16.33l-2.4,6.26h-16.66l19.66-46.99ZM265.47,102.91l-4.27-11.33-4.26,11.33h8.53Z"/>
      <path d="M290.66,73.59h39.05v13.33h-23.46v5.93h21.79v12.13h-21.79v15.26h-15.59v-46.65Z"/>
      <path d="M345.31,86.78h-13.73v-13.2h43.05v13.2h-13.73v33.46h-15.59v-33.46Z"/>
      <path d="M378.17,73.59h39.79v12.8h-24.46v4.73h22.79v11.26h-22.79v5.07h24.79v12.8h-40.12v-46.65Z"/>
      <path d="M422.48,73.59h22.79c4.18,0,7.61.48,10.3,1.43,2.69.96,4.85,2.26,6.5,3.9,1.42,1.42,2.49,3.02,3.2,4.8.71,1.78,1.07,3.87,1.07,6.26v.13c0,3.42-.82,6.31-2.47,8.66-1.64,2.36-3.89,4.22-6.73,5.6l10.86,15.86h-17.79l-8.8-13.33h-3.33v13.33h-15.59v-46.65ZM444.81,95.78c1.87,0,3.33-.4,4.4-1.2s1.6-1.91,1.6-3.33v-.13c0-1.51-.53-2.63-1.6-3.37-1.07-.73-2.51-1.1-4.33-1.1h-6.8v9.13h6.73Z"/>
    </g>
  </g>
</svg>

